<?xml version="1.0" encoding="UTF-8"?>
<svg width="24px" height="24px" viewBox="0 0 24 24" version="1.1" xmlns="http://www.w3.org/2000/svg" xmlns:xlink="http://www.w3.org/1999/xlink">
    <title>svg/edit_profile_ic</title>
    <g id="Page-1" stroke="none" stroke-width="1" fill="none" fill-rule="evenodd">
        <g id="My-Profile" transform="translate(-53.000000, -295.000000)">
            <g id="edit_profile_ic" transform="translate(53.000000, 295.000000)">
                <polygon id="Path" points="0 0 24 0 24 24 0 24"></polygon>
                <path d="M6.414,16 L16.556,5.858 L15.142,4.444 L5,14.586 L5,16 L6.414,16 Z M7.243,18 L3,18 L3,13.757 L14.435,2.322 C14.8254999,1.93161806 15.4585001,1.93161806 15.849,2.322 L18.678,5.151 C19.0683819,5.54149985 19.0683819,6.17450015 18.678,6.565 L7.243,18 Z M3,20 L21,20 L21,22 L3,22 L3,20 Z" id="Shape" fill="#202328" fill-rule="nonzero"></path>
            </g>
        </g>
    </g>
</svg>