<?xml version="1.0" encoding="UTF-8"?>
<svg width="79px" height="113px" viewBox="0 0 79 113" version="1.1" xmlns="http://www.w3.org/2000/svg" xmlns:xlink="http://www.w3.org/1999/xlink">
	<title>
		svg/login_logo
	</title>
	<g id="Page-1" stroke="none" stroke-width="1" fill="none" fill-rule="evenodd">
		<g id="Login" transform="translate(-145.000000, -105.000000)">
			<g id="Group" transform="translate(145.000000, 105.000000)">
				<path d="M32.9668029,77.9677197 C13.3476029,74.8045197 -1.44919707,57.0421197 0.113202926,36.2213197 C1.55320293,17.0389197 17.0388029,1.55411965 36.2204029,0.113319653 C57.0420029,-1.44988035 74.8044029,13.3461197 77.9684029,32.9637197 C78.4988029,36.2501197 75.9660029,39.2333197 72.6380029,39.2333197 L72.2276029,39.2333197 C69.5476029,39.2333197 67.3284029,37.2573197 66.8884029,34.6149197 C64.5740029,20.7125197 51.9924029,10.2365197 37.2276029,11.2701197 C23.4180029,12.2373197 12.2332029,23.4245197 11.2692029,37.2341197 C10.2404029,51.9965197 20.7156029,64.5741197 34.6164029,66.8877197 C37.2596029,67.3269197 39.2348029,69.5461197 39.2348029,72.2253197 L39.2348029,72.6381197 C39.2348029,75.9653197 36.2508029,78.4973197 32.9668029,77.9677197" id="Fill-18" fill="#47CDFE">
				</path>
				<path d="M42.2476029,111.98932 C21.4260029,113.55252 3.66440293,98.7549197 0.500402926,79.1365197 C-0.0299970741,75.8517197 2.50280293,72.8677197 5.83080293,72.8677197 L6.24120293,72.8677197 C8.92120293,72.8677197 11.1404029,74.8429197 11.5804029,77.4869197 C13.8948029,91.3885197 26.4740029,101.86372 41.2372029,100.83172 C55.0468029,99.8669197 66.2340029,88.6805197 67.1988029,74.8709197 C68.2308029,60.1077197 57.7548029,47.5277197 43.8532029,45.2141197 C41.2092029,44.7741197 39.2348029,42.5549197 39.2348029,39.8749197 L39.2348029,39.4637197 C39.2348029,36.1357197 42.2180029,33.6037197 45.5028029,34.1333197 C65.1212029,37.2973197 79.9188029,55.0589197 78.3556029,75.8813197 C76.9156029,95.0629197 61.4300029,110.54932 42.2476029,111.98932" id="Fill-20" fill="#0857DF">
				</path>
				<path d="M27.2348029,72.8677197 C27.2348029,66.2405197 32.6068029,60.8677197 39.2348029,60.8677197 C45.8620029,60.8677197 51.2348029,66.2405197 51.2348029,72.8677197 C51.2348029,79.4949197 45.8620029,84.8677197 39.2348029,84.8677197 C32.6068029,84.8677197 27.2348029,79.4949197 27.2348029,72.8677197" id="Fill-22" fill="#0857DF">
				</path>
				<path d="M27.2348029,39.2341197 C27.2348029,32.6061197 32.6068029,27.2341197 39.2348029,27.2341197 C45.8620029,27.2341197 51.2348029,32.6061197 51.2348029,39.2341197 C51.2348029,45.8613197 45.8620029,51.2341197 39.2348029,51.2341197 C32.6068029,51.2341197 27.2348029,45.8613197 27.2348029,39.2341197" id="Fill-23" fill="#47CDFE">
				</path>
			</g>
		</g>
	</g>
</svg>
